<svg xmlns="http://www.w3.org/2000/svg" width="24" height="24" fill="currentColor" viewBox="0 0 24 24">
  <path d="M13.317 11.434a4.535 4.535 0 00.942 2.773 4.554 4.554 0 006.248.946.643.643 0 00.192-.144 4.553 4.553 0 00.787-6.355 4.554 4.554 0 00-6.391-.83 4.554 4.554 0 00-1.778 3.61zm4.558 3.274c-.988 0-1.875-.44-2.477-1.134a2.1 2.1 0 01.34-.863c.144-.213.316-.384.498-.494.212.442.598.786 1.07.942.169.62.611 1.137 1.152 1.497a3.28 3.28 0 01-.583.052zm3.275-3.275c0 .993-.444 1.884-1.145 2.486a2.105 2.105 0 01-.861-.344 1.65 1.65 0 01-.49-.5c.446-.213.792-.601.948-1.076.619-.172 1.135-.617 1.494-1.16.035.192.054.391.054.594zm-3.275-3.275c.988 0 1.875.44 2.477 1.135a2.1 2.1 0 01-.34.863 1.665 1.665 0 01-.498.494 1.825 1.825 0 00-1.073-.943c-.172-.62-.617-1.136-1.16-1.495.193-.035.391-.054.594-.054zm-1.277 1.138c.212.144.383.316.494.498-.444.213-.788.6-.944 1.073-.618.172-1.136.618-1.494 1.16a3.28 3.28 0 011.08-3.07c.292.04.6.161.864.34z"/>
  <path d="M9.509 19.658v-2.1h1.066v2.1c0 .354.287.642.642.642h8.616a.643.643 0 00.642-.642v-2.1h1.316A2.21 2.21 0 0024 15.35V7.516a2.21 2.21 0 00-2.209-2.208h-7.813a.64.64 0 00-.039 0H3.634V3.992a.642.642 0 00-.642-.642H.642a.642.642 0 000 1.283H2.35v2.242h-.925a.642.642 0 00-.642.641v2.35c0 .355.288.642.642.642h.925v.283h-.925a.642.642 0 00-.642.642v2.35c0 .354.288.642.642.642h.925v.925a2.21 2.21 0 002.208 2.208h.534v2.1c0 .354.287.642.642.642h3.133a.643.643 0 00.642-.642zm1.708-3.383H8.889a.55.55 0 00-.022 0H4.558a.927.927 0 01-.925-.925v-.925h6.926l1.85 1.85h-1.192zm-5.483.25h-.018zm14.117 0h-.01.01zm-5.628-.25L11.28 13.33a.64.64 0 00-.454-.19H3.634V9.726h7.191c.17 0 .334-.068.455-.19l2.944-2.943h7.567c.51 0 .925.415.925.925v7.833c0 .51-.415.925-.925.925H14.223zM3.633 6.592h8.776l-1.85 1.85H3.635v-1.85zM16.95 18.483a.642.642 0 00-1.284 0v.534h-.282v-.534a.642.642 0 00-1.284 0v.534h-.283v-.534a.642.642 0 00-1.284 0v.534h-.675v-1.458h7.333v1.458h-.674v-.534a.642.642 0 00-1.284 0v.534h-.283v-.534zM2.35 9.225h-.283V8.158h.283v1.067zm-.283 2.85h.283v1.067h-.283v-1.067zm6.158 5.484v1.458h-.283v-.534a.642.642 0 00-1.284 0v.534h-.283v-1.458h1.85z"/>
</svg>
