<svg xmlns="http://www.w3.org/2000/svg" width="24" height="24" fill="currentColor" viewBox="0 0 24 24">
  <path d="M20.828 2H3.172C2.526 2 2 2.526 2 3.172v17.656C2 21.474 2.526 22 3.172 22h17.656c.646 0 1.172-.526 1.172-1.172V3.172C22 2.526 21.474 2 20.828 2zm0 18.828H3.172V3.172h17.656c0 18.035.004 17.656 0 17.656z"/>
  <path d="M19.305 11.973c0-1.643-.937-2.746-2.331-2.746H15.75a.586.586 0 00-.586.587c.005 2.43.001 2.249.009 4.322a.586.586 0 00.586.584c.117 0 .965-.005 1.26-.01 1.325-.023 2.286-1.174 2.286-2.737zm-2.306 1.565c-.151.003-.412.005-.656.007-.005-1.272-.003-1.457-.006-3.147h.637c1.075 0 1.159 1.206 1.159 1.575 0 .77-.35 1.552-1.134 1.565zM5.24 5.7a.586.586 0 10-.23-1.15.586.586 0 00.23 1.15zM19.045 5.686a.585.585 0 10-.339-1.12.585.585 0 00.34 1.12zM18.705 18.314a.585.585 0 10.338 1.12.585.585 0 00-.338-1.12zM4.955 18.314a.585.585 0 10.338 1.12.585.585 0 00-.338-1.12zM7.579 11.524c-.542-.2-1.047-.417-1.207-.487-.176-.146-.13-.483.238-.594.617-.186 1.193.274 1.2.278a.587.587 0 10.735-.91c-.13-.105-1.103-.842-2.273-.49-1.343.405-1.555 2.038-.512 2.719.158.102 1.226.515 1.413.584.147.054.622.255.565.573-.042.237-.334.482-.749.482-.434 0-.852-.174-1.117-.467a.586.586 0 00-.869.787c.491.542 1.215.852 1.986.852 2.01 0 2.815-2.506.59-3.327zM12.809 10.722l-.003-.002c-.001.003.002 0 .003.002z"/>
  <path d="M12.579 11.524c-.542-.2-1.047-.417-1.207-.487-.176-.146-.13-.483.238-.594.617-.186 1.193.274 1.199.279a.587.587 0 10.736-.912c-.13-.104-1.103-.841-2.273-.489-1.343.405-1.555 2.038-.511 2.719.157.102 1.225.515 1.412.584.147.054.622.255.565.573-.042.237-.334.482-.749.482-.434 0-.852-.174-1.117-.467a.586.586 0 00-.869.787c.491.542 1.215.852 1.986.852 2.01 0 2.815-2.506.59-3.327z"/>
</svg>
