<svg xmlns="http://www.w3.org/2000/svg" width="24" height="24" fill="currentColor" viewBox="0 0 24 24">
  <path d="M14.307 8.638a.778.778 0 00-.55-.228h-3.515a.777.777 0 00-.55.228L8.639 9.693a.777.777 0 00-.228.55v3.515c0 .206.082.404.228.55l1.055 1.054a.777.777 0 00.55.228h3.515a.777.777 0 00.55-.228l1.054-1.055a.777.777 0 00.228-.55v-3.515a.777.777 0 00-.228-.55l-1.055-1.054zm-.272 1.926v2.872l-.6.6h-2.87l-.6-.6v-2.872l.6-.6h2.87l.6.6z"/>
  <path d="M20.473 11.371a.777.777 0 100-1.555h-2.07V8.56h2.07a.777.777 0 000-1.555h-2.07v-.102c0-.72-.586-1.304-1.305-1.304h-.102v-2.07a.777.777 0 10-1.555 0v2.07h-1.257v-2.07a.777.777 0 00-1.555 0v2.07H11.37v-2.07a.777.777 0 10-1.555 0v2.07H8.56v-2.07a.777.777 0 00-1.555 0v2.07h-.102c-.72 0-1.304.585-1.304 1.304v.102h-2.07a.777.777 0 000 1.555h2.07v1.257h-2.07a.777.777 0 100 1.555h2.07v1.258h-2.07a.777.777 0 100 1.555h2.07v1.257h-2.07a.777.777 0 000 1.555h2.07v.102c0 .72.585 1.304 1.304 1.304h.102v2.07a.777.777 0 001.555 0v-2.07h1.257v2.07a.777.777 0 001.555 0v-2.07h1.258v2.07a.777.777 0 101.555 0v-2.07h1.257v2.07a.777.777 0 001.555 0v-2.07h.102c.72 0 1.304-.585 1.304-1.304v-.102h2.07a.777.777 0 100-1.555h-2.07v-1.257h2.07a.777.777 0 000-1.555h-2.07V11.37h2.07zm-3.374 4.162a6191.662 6191.662 0 01-.001 1.565c.001 0 .002-.07.001-1.565zm-.25 1.315H7.152V7.152h9.696l.001 8.376v1.32z"/>
</svg>
