<svg xmlns="http://www.w3.org/2000/svg" width="24" height="24" fill="currentColor" viewBox="0 0 24 24">
  <path d="M17.898 8.703H6.102a.836.836 0 00-.836.836v3.906c0 .462.374.836.836.836h11.796a.836.836 0 00.836-.836V9.54a.836.836 0 00-.836-.836zm-8.7 3.906h-2.26v-2.234h2.26v2.234zm3.932 0h-2.26v-2.234h2.26v2.234zm3.932 0h-2.26v-2.234h2.26v2.234z"/>
  <path d="M21.414 11.547a.836.836 0 00.836-.836V7.586a.836.836 0 00-.836-.836H2.586a.836.836 0 00-.836.836v3.125c0 .462.374.836.836.836a.728.728 0 010 1.453.836.836 0 00-.836.836v3.125c0 .462.374.836.836.836h4.336a.836.836 0 00.836-.836v-.727h.672v.727c0 .462.374.836.836.836h12.148a.836.836 0 00.836-.836v-3.125a.836.836 0 00-.836-.836.728.728 0 010-1.453zm-2.398.726c0 1.03.65 1.909 1.562 2.249v1.603h-.353v-.727a.836.836 0 00-1.672 0v.727h-.352v-.727a.836.836 0 00-1.672 0v.727h-.353v-.727a.836.836 0 00-1.672 0v.727h-.353v-.727a.836.836 0 00-1.672 0v.727h-.353v-.727a.836.836 0 00-1.672 0v.727h-.352v-.727a.836.836 0 00-.836-.835H6.922a.836.836 0 00-.836.835v.727h-.36v-.727a.836.836 0 10-1.671 0v.727h-.633v-1.603a2.402 2.402 0 001.562-2.249c0-1.029-.65-1.908-1.562-2.248V8.422h17.156v1.603a2.402 2.402 0 00-1.562 2.248z"/>
</svg>
